<svg xmlns="http://www.w3.org/2000/svg" viewBox="-76.4 127.6 1348.8 297.6" role="img" aria-label="Sublime">
  <path fill="currentColor" d="M165.2 301.2 124.4 302.8Q86.8 302.8 73.8 300.2Q60.8 297.6 50.6 294Q40.4 290.4 34.4 285.6Q19.6 274.4 19.6 255.6Q19.6 250 26.4 238.8Q33.2 227.6 49.8 212.2Q66.4 196.8 89.4 183Q112.4 169.2 150 158.8Q187.6 148.4 231.6 146.8Q247.2 146.8 264.6 150.6Q282 154.4 293.4 159.6Q304.8 164.8 313.6 175.4Q322.4 186 322.4 200Q322.4 211.2 300.8 224Q276.8 238.4 237.4 238.4Q198 238.4 198 232.8Q198 228.4 221 222.4Q244 216.4 267.2 208.4Q290.4 200.4 290.4 190.4Q290.4 185.2 272.8 185.2Q156.8 185.2 73.6 245.2Q58 256.8 58 265.2Q58 278.4 141.2 278.4Q216 279.2 216 318.4Q216 346.4 178 371.6Q140 396.8 88.6 410.8Q37.2 424.8 -8 425.2Q-29.2 425.2 -52.8 414Q-76.4 402.8 -76.4 386.8Q-76.4 381.6 -67.6 381.2Q-20.4 376 -7.2 370Q-4 369.2 -2 369.2Q0 369.2 0 370Q0 371.6 -4.8 375.2Q-9.2 377.6 -14.4 379.6Q-25.6 383.6 -25.6 384.8Q-25.6 386 -17.6 386Q-9.6 386 22.8 379.6Q55.2 373.2 92.2 363.2Q129.2 353.2 157.6 338.4Q186 323.6 186 310Q186 301.2 165.2 301.2ZM332 364.4Q391.6 332.4 463.2 279.2Q466.8 282 466.8 286Q466.8 290 462.8 293.6Q458.8 297.2 451.4 304Q444 310.8 423.2 328.4Q402.4 346 384.4 360.4Q337.2 398.4 314.8 405.2Q307.6 407.2 299.2 407.2Q285.6 407.2 285.6 386Q285.6 381.6 289.4 372.8Q293.2 364 293.8 362.6Q294.4 361.2 294.8 360.4Q295.2 359.6 295.6 359Q296 358.4 296 357.6Q296 356.8 293.6 356.8Q291.6 356.8 280.4 367.4Q269.2 378 261.8 384.4Q254.4 390.8 245 396.4Q235.6 402 229.6 402Q213.6 402 213.6 387.2Q213.6 378.4 219.6 365.6Q233.6 336 261.6 306.4Q289.6 276.8 301.6 276.4Q306 276.4 309.6 279.6Q313.2 282.8 313.2 286.8Q313.2 290.8 305.2 298.8Q297.2 306.8 285 319.4Q272.8 332 267.8 340.4Q262.8 348.8 262.8 351.6Q262.8 354.4 266 354.4Q269.2 354.4 277.6 349.2Q300.4 333.6 329.8 310.8Q359.2 288 367.6 277.6Q369.6 270.4 379.6 270.4Q398.8 270.4 398.8 277.2Q398.8 280 380 298Q323.6 352 323.6 364.8Q323.6 366.8 325.4 366.8Q327.2 366.8 332 364.4ZM572 127.6Q592.8 127.6 592.8 138.8Q592.8 155.2 561.4 188.4Q530 221.6 498.4 246.4L467.2 271.6Q464.8 274.4 464.8 276Q464.8 277.6 466.8 277.6Q498.4 257.2 523.6 256.4Q528.4 256.4 532.4 259.2Q546 270.4 546 285.2Q546 300 515.6 335.2Q528.4 332 550.6 318.6Q572.8 305.2 588.4 293.2L604 281.2Q607.6 284 607.6 288Q607.6 292 604 295.2Q538 356.4 504 356.4Q501.6 356.4 496.8 355.6L497.6 354.4Q474 377.6 450.4 393Q426.8 408.4 411.6 408.4Q374 408.4 374 382.8Q374 370 382.2 352.6Q390.4 335.2 402 319.4Q413.6 303.6 425.4 289.6Q437.2 275.6 445.4 267.2Q453.6 258.8 453.6 259.2Q482 226.4 503 198.6Q524 170.8 530.8 159Q537.6 147.2 544.4 138.8Q551.2 130.4 555.8 129Q560.4 127.6 572 127.6ZM411.2 386Q427.6 386 453.8 362.8Q480 339.6 498.6 314.4Q517.2 289.2 517.2 281.6Q517.2 280.4 516 280.4Q495.2 280.4 468.8 302.8Q442.4 325.2 425.4 349.6Q408.4 374 408.4 383.2Q408.4 386 411.2 386ZM582.8 373.6Q596 373.6 635 350Q674 326.4 706 302.8L738.4 279.2Q742 282 742 286Q742 290 738 293.6Q734 297.2 726.6 304Q719.2 310.8 698.4 328.4Q677.6 346 659.6 360.4Q612.4 398.4 590 405.2Q582.8 407.2 575.2 407.2Q567.6 407.2 563.2 406Q558.8 404.8 553.6 400.8Q543.2 392 543.2 361.6Q543.2 353.2 550.4 336Q557.6 318.8 574.2 294.4Q590.8 270 613 245.6Q635.2 221.2 669.4 196.8Q703.6 172.4 742.4 157.2Q748.4 155.2 753.2 155.2Q758 155.2 762 159.4Q766 163.6 767.6 168L769.6 172Q769.6 181.2 741.2 212.4Q712 244.8 673.8 274.2Q635.6 303.6 602.8 324.4Q576 342 576 361.2Q576 373.6 582.8 373.6ZM618.8 290.8Q628.8 290.8 679.4 241.6Q730 192.4 730 186.8L729.6 186L722.8 189.2Q702 202.8 667.4 235.6Q632.8 268.4 619.6 286.8Q618 288.8 618 289.8Q618 290.8 618.8 290.8ZM801.2 202Q805.2 202 806.4 203.6Q812 210.4 812 214.6Q812 218.8 809.6 221.8Q807.2 224.8 803.8 228.6Q800.4 232.4 790.2 239Q780 245.6 770.4 245.6Q763.2 244.4 763.2 236.8Q763.2 224.8 777.6 213.4Q792 202 801.2 202ZM705.2 359.6Q702 365.2 702 369.6Q702 374 706.8 374Q709.6 374 716.4 371.6Q791.2 332.4 862.8 279.2Q866.4 282 866.4 286Q866.4 290 862.4 293.6Q858.4 297.2 851 304Q843.6 310.8 822.8 328.4Q802 346 784 360.4Q736.8 398.4 714.4 405.2Q707.2 407.2 698.8 407.2Q668 407.2 668 374.4Q668 361.6 682 337.8Q696 314 710.8 295.8Q725.6 277.6 730.4 275.6Q737.6 271.2 746 271.2Q754.4 271.2 762 274.4Q764.4 275.6 764.4 277.6Q764.4 279.6 760.6 283.6Q756.8 287.6 749 296Q741.2 304.4 725.8 325Q710.4 345.6 705.2 359.6ZM958.4 375.2Q958.4 378.8 963 378.8Q967.6 378.8 979.8 373.2Q992 367.6 1009 356Q1026 344.4 1054.2 323Q1082.4 301.6 1103.6 286.8Q1107.2 289.6 1107.2 293.6Q1107.2 297.6 1103.6 300.8Q1090.8 313.2 1071.2 331.8Q1051.6 350.4 1011.4 381.6Q971.2 412.8 955.2 412.8Q924.4 412.8 924.4 380Q924.4 367.6 934 354L951.2 330.4Q953.6 326.8 953.6 326.2Q953.6 325.6 951.2 327.6Q881.6 385.6 862.4 395.6Q859.2 397.6 854.4 397.6Q841.2 397.6 841.2 385.6Q841.2 381.6 843.2 378.4Q866.4 344.8 878.8 333.2L885.6 326.4Q886.4 325.6 886.4 324.8Q886.4 324 885.6 324Q884.8 324 883.2 325.6L840.4 359.2Q803.2 388.4 799.8 390.2Q796.4 392 793.6 392Q790.8 392 784.8 388.6Q778.8 385.2 778.8 380.8Q778.8 379.6 780 377.6Q819.2 334.4 837.2 306.4Q844.8 294.4 850.6 285Q856.4 275.6 859.8 271.6Q863.2 267.6 867.2 267.6Q871.2 267.6 876.2 272.2Q881.2 276.8 881.2 281.6Q881.2 286.4 878 291.6Q864.4 316 856.8 323.2Q855.6 324.4 855.6 325.4Q855.6 326.4 856.4 326.4L857.6 326L911.2 288.8Q931.6 274.8 935.6 274.8Q939.6 274.8 944.2 277.4Q948.8 280 948.8 283.2Q948.8 286.4 946.8 289.6L920.8 325.2Q915.6 331.6 915.6 332.4Q915.6 333.2 916 333.2L918 332Q968 298 985.8 284.8Q1003.6 271.6 1007.2 268Q1012.8 264 1016.6 264Q1020.4 264 1021.6 264.8L1030.4 271.6Q1034.4 273.6 1034.4 276.8Q1034.4 280 1032.8 282Q1009.2 307.6 995 322.8Q980.8 338 974.4 345.2Q964 357.6 961.6 365.2Q958.4 370.8 958.4 375.2ZM1162 279.2Q1151.6 279.2 1126.8 300.6Q1102 322 1102 326.8Q1102 327.6 1103.2 327.6Q1112 327.6 1138.2 308Q1164.4 288.4 1164.4 281.2Q1164.4 279.2 1162 279.2ZM1076.8 407.2Q1046 407.2 1046 369.6Q1046 346 1066.6 319.4Q1087.2 292.8 1115.2 275.8Q1143.2 258.8 1164.8 258.8Q1174.4 258.8 1182.6 266.4Q1190.8 274 1190.8 281.2Q1190.8 294.4 1172 311Q1153.2 327.6 1132.6 337.8Q1112 348 1105.4 348Q1098.8 348 1095.6 342Q1094 340.8 1091.2 340.8Q1088.4 340.8 1082 351.4Q1075.6 362 1075.6 368.6Q1075.6 375.2 1080.4 376.8Q1110.8 376.8 1146.4 359Q1182 341.2 1244.8 296.4Q1249.2 293.2 1258.2 286.8Q1267.2 280.4 1268.8 279.2Q1272.4 282 1272.4 286Q1272.4 290 1268.8 293.2Q1248.8 313.2 1217 338Q1185.2 362.8 1144 385Q1102.8 407.2 1076.8 407.2Z"/>
</svg>
